{"title":"Earth Star Voyager","uid":4675406,"size":1458415616,"categoryP":"video","categoryS":"movies","magnet":"?xt=urn:btih:50047d6b1b986d9f9dfe6298e8d5489dd6a3c378&amp;dn=Earth+Star+Voyager&amp;tr=udp%3A%2F%2Ftracker.openbittorrent.com%3A80&amp;tr=udp%3A%2F%2Fopen.demonii.com%3A1337&amp;tr=udp%3A%2F%2Ftracker.coppersurfer.tk%3A6969&amp;tr=udp%3A%2F%2Fexodus.desync.com%3A6969","seeders":1,"leechers":0,"uploader":"veter141","files":-1,"time":1232843199,"description":"Director:\nJames Goldstone\nWriter:\nEd Spielman (writer)\nRelease Date:\n17 January 1988 (USA)\nGenre:\nAction | Adventure | Sci-Fi \n\nThe Earth Star Voyager is a spaceship sent to another solar system to prepare it for colonization. Earth itself is horribly polluted, so the mission is vitally important. But as the departing starship gets under way, signs begin to emerge that their mission may unwittingly be part of a larger conspiracy.\n \n\nCover: &lt;a href=&quot; http://i524.photobucket.com/albums/cc322/onarkvago08/viajespacio.jpg&quot; rel=&quot;nofollow&quot; target=&quot;_NEW&quot;&gt; http://i524.photobucket.com/albums/cc322/onarkvago08/viajespacio.jpg&lt;/a&gt;\n       &lt;a href=&quot; http://upload.wikimedia.org/wikipedia/en/3/35/Earthstarrd8.jpg&quot; rel=&quot;nofollow&quot; target=&quot;_NEW&quot;&gt; http://upload.wikimedia.org/wikipedia/en/3/35/Earthstarrd8.jpg&lt;/a&gt;\n       \nQuality: VHSRip\nFormat: AVI\nVideo codec: XviD\nAudio codec: MP3\n\nVideo: Format : MPEG-4 Custom Codec ID : XVID Duration : 3h 0mn Bit rate : 908 Kbps Width : 704 pixels Height : 528 pixels Display aspect ratio : 4/3 Frame rate : 23.976 fps Resolution : 24 bits Colorimetry : 4:2:0 Scan type : Progressive Bits/(Pixel*Frame) : 0.102 Stream size : 1.14 GiB (84%)\n\nAudio: Format : MPEG Audio Format version : Version 1 Format profile : Layer 3 Codec ID : 55 Codec ID/Hint : MP3 Duration : 3h 0mn Bit rate mode : Constant Bit rate : 160 Kbps Minimum bit rate : 160 Kbps Channel(s) : 2 channels Sampling rate : 48.0 KHz Resolution : 16 bits Stream size : 207 MiB (15%)\n\nScreens: &lt;a href=&quot;\nhttp://bayimg.com/JaPdDaAbd&quot; rel=&quot;nofollow&quot; target=&quot;_NEW&quot;&gt;\nhttp://bayimg.com/JaPdDaAbd&lt;/a&gt; http://bayimg.com/JaPDEAAbD http://bayimg.com/japDIaabd http://bayimg.com/JapDKAaBD http://bayimg.com/JApDnAABd http://bayimg.com/KAPdBAaBd \n\n","torrent":{"xt":"urn:btih:50047d6b1b986d9f9dfe6298e8d5489dd6a3c378","amp;dn":"Earth+Star+Voyager","amp;tr":["udp%3A%2F%2Ftracker.openbittorrent.com%3A80","udp%3A%2F%2Fopen.demonii.com%3A1337","udp%3A%2F%2Ftracker.coppersurfer.tk%3A6969","udp%3A%2F%2Fexodus.desync.com%3A6969"],"infoHash":"50047d6b1b986d9f9dfe6298e8d5489dd6a3c378","infoHashBuffer":{"type":"Buffer","data":[80,4,125,107,27,152,109,159,157,254,98,152,232,213,72,157,214,163,195,120]},"announce":[],"urlList":[]}}